<svg width="9" height="11" viewBox="0 0 9 11" fill="none" xmlns="http://www.w3.org/2000/svg">
<path d="M2.49769 0L7.78019 0.000510596C8.45496 -9.80651e-08 8.99948 0.534591 8.99948 1.19276C8.99948 1.1948 9 8.09086 9 8.09086C9 8.74748 8.45652 9.2831 7.7849 9.28361H2.49865C1.82388 9.28361 1.27675 8.74953 1.27675 8.09086L1.27623 1.19276C1.27623 0.534081 1.82292 0 2.49769 0ZM0.832686 1.25045L0.833733 8.09143C0.833733 8.98906 1.57911 9.71671 2.49873 9.71671H7.63956C7.46172 10.1579 7.02285 10.4714 6.50867 10.4724H1.22242C0.547654 10.4724 0.000523567 9.93831 0.000523567 9.27963L0 2.38153C0 1.85562 0.348853 1.40924 0.832686 1.25045Z" fill="#7CB80E"/>
</svg>
