<svg width="33" height="35" viewBox="0 0 33 35" fill="none" xmlns="http://www.w3.org/2000/svg">
<path fill-rule="evenodd" clip-rule="evenodd" d="M3.93927 12.981C4.23368 11.8315 4.69053 10.7298 5.29603 9.70931L4.35881 7.99379L3.32842 6.10315L4.71443 4.71713L6.10315 3.32842L7.99379 4.35926L9.71111 5.29648C10.7315 4.69121 11.833 4.23451 12.9824 3.94017L13.5338 2.06439L14.1402 0H18.0668L18.6741 2.06439L19.2251 3.94017C20.3741 4.23439 21.4754 4.6911 22.4954 5.29648L24.2127 4.35926L26.1011 3.32842L27.4921 4.71713L28.8799 6.10495L27.8495 7.99559L26.9123 9.71291C27.5167 10.7324 27.9728 11.8328 28.2668 12.981L30.1421 13.532L32.2065 14.1388V18.0677L30.1421 18.6741L28.2668 19.2246C27.9728 20.3742 27.5161 21.4759 26.9105 22.4963L27.8477 24.2136L28.8781 26.1043L27.4921 27.4907L26.1034 28.879L24.215 27.8482L22.4954 26.9109C21.475 27.5162 20.3735 27.9729 19.2242 28.2672L18.9608 29.1626V24.779C21.0218 24.0995 22.7733 22.7079 23.9012 20.8539C25.0291 18.9998 25.4596 16.8046 25.1155 14.6619C24.7714 12.5192 23.6751 10.5692 22.0234 9.16162C20.3717 7.75401 18.2725 6.98087 16.1024 6.98087C13.9322 6.98087 11.833 7.75401 10.1813 9.16162C8.52959 10.5692 7.43337 12.5192 7.08924 14.6619C6.74512 16.8046 7.1756 18.9998 8.30349 20.8539C9.43138 22.7079 11.1829 24.0995 13.2439 24.779V29.1626L12.981 28.2672C11.8321 27.9728 10.7311 27.5161 9.71111 26.9109L7.99379 27.8482L6.1054 28.879L4.71443 27.4907L3.32662 26.1025L4.35701 24.2118L5.29378 22.4945C4.68853 21.4739 4.23184 20.3723 3.93747 19.2228L2.06259 18.6718L0 18.0677V14.1406L2.06439 13.5338L3.93927 12.981ZM17.9799 33.9581V21.9152C19.1858 21.5226 20.2384 20.7622 20.99 19.7407C21.7416 18.7193 22.1544 17.4882 22.1705 16.2201C22.1866 14.9521 21.8051 13.7108 21.0797 12.6706C20.3543 11.6305 19.3213 10.8436 18.1258 10.4206V15.6743L16.1033 17.144L14.0807 15.6725V10.4206C12.8852 10.8436 11.8522 11.6305 11.1268 12.6706C10.4014 13.7108 10.0199 14.9521 10.036 16.2201C10.0521 17.4882 10.4649 18.7193 11.2165 19.7407C11.9681 20.7622 13.0207 21.5226 14.2266 21.9152V33.9608C14.2271 34.1792 14.314 34.3886 14.4685 34.5431C14.623 34.6975 14.8324 34.7845 15.0508 34.785H17.1557C17.3742 34.7845 17.5835 34.6975 17.738 34.5431C17.8925 34.3886 17.9795 34.1792 17.9799 33.9608V33.9581Z" fill="#7CB80E"/>
</svg>
